<svg width="1400" height="250" viewBox="0 0 1400 250" fill="none" xmlns="http://www.w3.org/2000/svg">
<g clip-path="url(#clip0_41_115)">
<mask id="mask0_41_115" style="mask-type:alpha" maskUnits="userSpaceOnUse" x="12" y="27" width="160" height="200">
<rect x="12" y="27" width="160" height="200" fill="#D9D9D9"/>
</mask>
<g mask="url(#mask0_41_115)">
<rect x="32" y="-22" width="238" height="229" rx="59" stroke="black" stroke-width="40" stroke-linejoin="bevel"/>
</g>
<mask id="mask1_41_115" style="mask-type:alpha" maskUnits="userSpaceOnUse" x="363" y="33" width="200" height="194">
<rect x="363" y="33" width="200" height="194" fill="#D9D9D9"/>
</mask>
<g mask="url(#mask1_41_115)">
<path d="M369.5 -13L463 226.5L556.5 -13" stroke="black" stroke-width="40" stroke-linecap="round" stroke-linejoin="round"/>
</g>
<mask id="mask2_41_115" style="mask-type:alpha" maskUnits="userSpaceOnUse" x="571" y="33" width="260" height="194">
<rect x="571" y="33" width="260" height="194" fill="#D9D9D9"/>
</mask>
<g mask="url(#mask2_41_115)">
<path d="M581 -9.5L648.35 226L702 43L753 226L819.5 -9.5" stroke="black" stroke-width="40" stroke-linecap="round" stroke-linejoin="bevel"/>
</g>
<mask id="mask3_41_115" style="mask-type:alpha" maskUnits="userSpaceOnUse" x="831" y="27" width="199" height="199">
<circle cx="930.5" cy="126.5" r="99.5" fill="#D9D9D9"/>
</mask>
<g mask="url(#mask3_41_115)">
<path fill-rule="evenodd" clip-rule="evenodd" d="M942.68 27.6847C918.348 24.8232 893.813 30.9933 873.73 45.024C853.646 59.0548 839.412 79.9699 833.728 103.801C828.045 127.631 831.307 152.719 842.896 174.304C854.485 195.889 873.594 212.468 896.598 220.896C919.602 229.325 944.899 229.015 967.69 220.026C990.48 211.038 1009.18 193.996 1020.24 172.134L984.541 154.08C977.907 167.197 966.688 177.423 953.014 182.816C939.34 188.209 924.161 188.395 910.359 183.338C901.994 180.273 894.487 175.412 888.322 169.174C887.227 168.091 886.171 166.964 885.158 165.795C877.259 156.68 872.29 145.396 870.9 133.415C869.51 121.434 871.763 109.312 877.365 98.6308C882.968 87.9495 891.659 79.2046 902.306 73.5369C912.953 67.8693 925.061 65.542 937.05 66.8587C949.039 68.1754 960.353 73.0749 969.516 80.9181L969.478 80.9628C971.734 82.8484 973.861 84.9073 975.836 87.1284C980.426 92.2903 983.782 96.8754 986.115 101.5H893.083C892.203 102.818 891.39 104.185 890.649 105.598C886.447 113.609 884.757 122.701 885.8 131.686C886.19 135.05 886.957 138.341 888.074 141.5H1010.5H1030.5V121.5C1030.5 95.8003 1021.11 77.845 1005.73 60.5472C989.446 42.2399 967.011 30.5461 942.68 27.6847Z" fill="black"/>
</g>
<mask id="mask4_41_115" style="mask-type:alpha" maskUnits="userSpaceOnUse" x="1050" y="27" width="160" height="200">
<rect x="1050" y="27" width="160" height="200" fill="#D9D9D9"/>
</mask>
<g mask="url(#mask4_41_115)">
<rect x="1070" y="-22" width="238" height="229" rx="59" stroke="black" stroke-width="40" stroke-linejoin="bevel"/>
</g>
<mask id="mask5_41_115" style="mask-type:alpha" maskUnits="userSpaceOnUse" x="1221" y="27" width="160" height="200">
<rect x="1221" y="27" width="160" height="200" fill="#D9D9D9"/>
</mask>
<g mask="url(#mask5_41_115)">
<rect x="1241" y="-22" width="238" height="229" rx="59" stroke="black" stroke-width="40" stroke-linejoin="bevel"/>
</g>
<path fill-rule="evenodd" clip-rule="evenodd" d="M272 193C289.384 193 305.042 185.607 316 173.793V222.825C302.722 229.341 287.788 233 272 233C216.772 233 172 188.228 172 133C172 77.7715 216.772 33 272 33C325.552 33 369.272 75.0944 371.877 128H372V133V148V211.5V231.5H332V213.007V211.5V148V137C332 136.638 331.976 136.282 331.93 135.934C331.976 134.962 332 133.984 332 133C332 99.8629 305.137 73 272 73C238.863 73 212 99.8629 212 133C212 166.137 238.863 193 272 193Z" fill="black"/>
</g>
<defs>
<clipPath id="clip0_41_115">
<rect width="1400" height="250" fill="white"/>
</clipPath>
</defs>
</svg>
